{
  "accessors": [
    {
      "bufferView": 2,
      "componentType": 5126,
      "count": 501,
      "max": [
        2.196906328201294,
        2.031270980834961,
        3.0195517539978027
      ],
      "min": [
        -2.369673252105713,
        -2.5966579914093018,
        -0.18802788853645325
      ],
      "type": "VEC3"
    },
    {
      "bufferView": 2,
      "byteOffset": 6012,
      "componentType": 5126,
      "count": 501,
      "max": [
        0.9935101270675659,
        0.99953293800354,
        0.997218132019043
      ],
      "min": [
        -0.999395489692688,
        -0.9943088889122009,
        -0.4639507234096527
      ],
      "type": "VEC3"
    },
    {
      "bufferView": 3,
      "componentType": 5126,
      "count": 501,
      "max": [
        0.2982670068740845,
        0.6145932078361511,
        0.9974844455718994,
        1.0
      ],
      "min": [
        -0.9973329305648804,
        -0.8250110745429993,
        -0.9998355507850647,
        1.0
      ],
      "type": "VEC4"
    },
    {
      "bufferView": 1,
      "componentType": 5126,
      "count": 501,
      "max": [
        0.9759168028831482,
        0.9769620895385742
      ],
      "min": [
        0.0199529230594635,
        0.030070509761571884
      ],
      "type": "VEC2"
    },
    {
      "bufferView": 0,
      "componentType": 5125,
      "count": 2880,
      "type": "SCALAR"
    }
  ],
  "asset": {
    "extras": {
      "author": "VX-Designs (https://sketchfab.com/vxdesigns)",
      "license": "CC-BY-4.0 (http://creativecommons.org/licenses/by/4.0/)",
      "source": "https://sketchfab.com/3d-models/iron-ore-free-93118b922cbb48caa4f45b16592fa519",
      "title": "Iron Ore (FREE)"
    },
    "generator": "Sketchfab-12.67.0",
    "version": "2.0"
  },
  "bufferViews": [
    {
      "buffer": 0,
      "byteLength": 11520,
      "name": "floatBufferViews",
      "target": 34963
    },
    {
      "buffer": 0,
      "byteLength": 4008,
      "byteOffset": 11520,
      "byteStride": 8,
      "name": "floatBufferViews",
      "target": 34962
    },
    {
      "buffer": 0,
      "byteLength": 12024,
      "byteOffset": 15528,
      "byteStride": 12,
      "name": "floatBufferViews",
      "target": 34962
    },
    {
      "buffer": 0,
      "byteLength": 8016,
      "byteOffset": 27552,
      "byteStride": 16,
      "name": "floatBufferViews",
      "target": 34962
    }
  ],
  "buffers": [
    {
      "byteLength": 35568,
      "uri": "scene.bin"
    }
  ],
  "images": [
    {
      "uri": "textures/Material.001_baseColor.png"
    },
    {
      "uri": "textures/Material.001_metallicRoughness.png"
    },
    {
      "uri": "textures/Material.001_normal.png"
    }
  ],
  "materials": [
    {
      "name": "Material.001",
      "normalTexture": {
        "index": 2
      },
      "occlusionTexture": {
        "index": 1
      },
      "pbrMetallicRoughness": {
        "baseColorTexture": {
          "index": 0
        },
        "metallicFactor": 0.001714939024390244,
        "metallicRoughnessTexture": {
          "index": 1
        },
        "roughnessFactor": 0.4224466463414634
      }
    }
  ],
  "meshes": [
    {
      "name": "Roca_Material.001_0",
      "primitives": [
        {
          "attributes": {
            "NORMAL": 1,
            "POSITION": 0,
            "TANGENT": 2,
            "TEXCOORD_0": 3
          },
          "indices": 4,
          "material": 0,
          "mode": 4
        }
      ]
    }
  ],
  "nodes": [
    {
      "children": [
        1
      ],
      "matrix": [
        0.002271967940032482,
        0.0,
        0.0,
        0.0,
        0.0,
        5.044782236468497e-19,
        -0.002271967940032482,
        0.0,
        0.0,
        0.002271967940032482,
        5.044782236468497e-19,
        0.0,
        0.0,
        0.0,
        0.0,
        1.0
      ],
      "name": "Sketchfab_model"
    },
    {
      "children": [
        2
      ],
      "matrix": [
        1.0,
        0.0,
        0.0,
        0.0,
        0.0,
        0.0,
        1.0,
        0.0,
        0.0,
        -1.0,
        0.0,
        0.0,
        0.0,
        0.0,
        0.0,
        1.0
      ],
      "name": "9296b0f9d9e34cbeaa025d9ed3550ae0.fbx"
    },
    {
      "children": [
        3
      ],
      "name": "RootNode"
    },
    {
      "children": [
        4
      ],
      "matrix": [
        100.0,
        0.0,
        0.0,
        0.0,
        0.0,
        -1.629206793918314e-05,
        -99.99999999999868,
        0.0,
        0.0,
        99.99999999999868,
        -1.629206793918314e-05,
        0.0,
        0.0,
        0.0,
        0.0,
        1.0
      ],
      "name": "Roca"
    },
    {
      "mesh": 0,
      "name": "Roca_Material.001_0"
    }
  ],
  "samplers": [
    {
      "magFilter": 9729,
      "minFilter": 9987,
      "wrapS": 10497,
      "wrapT": 10497
    }
  ],
  "scene": 0,
  "scenes": [
    {
      "name": "Sketchfab_Scene",
      "nodes": [
        0
      ]
    }
  ],
  "textures": [
    {
      "sampler": 0,
      "source": 0
    },
    {
      "sampler": 0,
      "source": 1
    },
    {
      "sampler": 0,
      "source": 2
    }
  ]
}
